<?xml version="1.0" standalone="no"?>
<!DOCTYPE svg PUBLIC "-//W3C//DTD SVG 20010904//EN"
 "http://www.w3.org/TR/2001/REC-SVG-20010904/DTD/svg10.dtd">
<svg version="1.0" xmlns="http://www.w3.org/2000/svg"
 width="2048.000000pt" height="1448.000000pt" viewBox="0 0 2048.000000 1448.000000"
 preserveAspectRatio="xMidYMid meet">
<metadata>
Created by potrace 1.16, written by Peter Selinger 2001-2019
</metadata>
<g transform="translate(0.000000,1448.000000) scale(0.100000,-0.100000)"
fill="#000000" stroke="none">
<path d="M18373 11049 c-7 -7 -13 -21 -13 -30 0 -10 -4 -21 -10 -24 -5 -3 -10
-22 -10 -41 0 -19 -4 -34 -9 -34 -4 0 -11 -27 -15 -60 -5 -42 -11 -60 -21 -60
-18 0 -55 31 -55 45 0 13 -54 64 -90 84 -100 58 -111 61 -226 61 -87 0 -114
-3 -124 -15 -7 -8 -25 -15 -41 -15 -15 0 -31 -4 -34 -10 -3 -5 -16 -10 -29
-10 -12 0 -33 -11 -46 -25 -13 -14 -31 -25 -40 -25 -9 0 -25 -9 -35 -20 -10
-11 -23 -20 -30 -20 -6 0 -26 -16 -45 -35 -19 -19 -39 -35 -45 -35 -14 0 -155
-142 -155 -156 0 -6 -9 -19 -20 -29 -11 -10 -20 -23 -20 -30 0 -6 -11 -22 -25
-35 -14 -13 -25 -28 -25 -34 0 -6 -9 -17 -20 -24 -11 -7 -20 -17 -20 -24 0
-10 -36 -93 -61 -140 -5 -10 -9 -33 -9 -52 0 -19 -4 -38 -10 -41 -6 -3 -10
-50 -10 -105 0 -55 4 -102 10 -105 6 -3 10 -23 10 -44 0 -20 6 -43 13 -50 10
-11 5 -13 -27 -8 -72 11 -106 65 -106 168 0 37 4 70 9 73 5 3 12 26 15 51 4
24 11 47 17 50 5 4 9 15 9 25 0 11 8 34 19 53 10 18 22 48 26 65 3 18 11 34
16 37 5 4 9 17 9 31 0 13 3 24 8 24 9 0 32 49 32 69 0 9 7 25 15 35 30 40 14
196 -20 196 -4 0 -16 9 -26 21 -10 12 -35 23 -59 26 -22 3 -43 10 -46 14 -3 5
-32 9 -64 9 -32 0 -62 5 -65 10 -3 6 -17 10 -31 10 -13 0 -24 -4 -24 -10 0 -6
-26 -10 -59 -10 -33 0 -63 -5 -66 -11 -4 -5 -12 -8 -18 -6 -33 11 -127 -41
-127 -71 0 -4 -16 -24 -36 -43 -19 -18 -44 -53 -55 -76 -10 -23 -24 -45 -30
-48 -5 -4 -14 -17 -20 -28 -16 -37 -33 -61 -62 -86 -15 -14 -41 -52 -57 -85
-16 -34 -42 -74 -59 -90 -17 -17 -31 -34 -31 -39 0 -5 -8 -17 -17 -26 -22 -20
-34 -40 -69 -111 -29 -57 -61 -96 -71 -86 -4 3 3 25 15 47 12 23 25 59 28 80
4 22 11 42 15 45 5 3 9 18 9 34 0 16 5 32 10 35 6 3 10 18 10 33 0 33 -75 112
-106 112 -12 0 -24 7 -28 15 -3 8 -12 15 -19 15 -8 0 -22 9 -32 20 -11 12 -31
20 -52 20 -18 0 -33 4 -33 10 0 5 -12 13 -27 16 -16 4 -42 15 -60 25 -23 13
-33 15 -37 6 -3 -8 -7 -9 -13 -2 -14 18 -53 36 -53 25 0 -14 -37 -12 -43 3 -4
7 -8 3 -12 -10 -5 -16 -15 -23 -34 -23 -35 0 -127 -95 -136 -142 -6 -32 -18
-64 -36 -100 -5 -10 -9 -24 -9 -32 0 -7 -7 -27 -15 -42 -8 -16 -15 -44 -15
-62 0 -31 -3 -40 -28 -89 -7 -13 -12 -32 -12 -42 0 -11 -4 -23 -10 -26 -5 -3
-10 -14 -10 -23 0 -9 -7 -30 -15 -46 -8 -15 -15 -41 -15 -57 0 -16 -4 -29 -10
-29 -5 0 -10 -14 -10 -30 0 -17 -4 -38 -9 -48 -10 -19 -24 -53 -25 -64 -1 -3
-4 -10 -8 -14 -5 -4 -8 -18 -8 -31 0 -12 -4 -23 -10 -23 -5 0 -10 -11 -10 -24
0 -14 -4 -28 -10 -31 -5 -3 -10 -17 -10 -31 0 -13 -4 -24 -9 -24 -5 0 -11 -26
-13 -57 -3 -31 -10 -59 -16 -61 -7 -2 -12 -9 -12 -16 0 -7 -11 -23 -25 -36
-14 -13 -25 -29 -25 -35 0 -7 -9 -20 -20 -30 -11 -10 -20 -23 -20 -29 0 -18
-144 -156 -162 -156 -9 0 -19 -6 -22 -12 -3 -7 -3 1 1 17 3 17 10 34 14 39 5
6 9 20 9 32 0 13 5 26 10 29 6 3 10 17 10 30 0 13 4 25 10 27 5 2 12 47 16
101 4 54 11 100 15 103 5 3 9 38 9 79 0 41 5 77 10 80 6 3 10 52 10 111 0 63
-4 104 -10 104 -5 0 -10 24 -10 54 0 30 -4 58 -10 61 -5 3 -10 22 -10 40 0 41
-30 102 -66 136 -14 13 -30 35 -35 48 -6 15 -15 21 -25 17 -8 -3 -25 3 -36 14
-12 11 -28 20 -35 20 -7 0 -13 5 -13 10 0 15 -137 13 -144 -2 -5 -10 -7 -10
-12 0 -7 14 -54 16 -54 2 0 -5 -9 -10 -20 -10 -11 0 -28 -4 -38 -9 -9 -6 -28
-12 -42 -15 -14 -3 -35 -14 -47 -26 -12 -11 -31 -20 -42 -20 -11 0 -23 -4 -26
-10 -3 -5 -17 -10 -31 -10 -15 0 -24 -6 -24 -15 0 -8 -8 -15 -19 -15 -10 0
-25 -7 -32 -16 -7 -9 -22 -20 -34 -25 -55 -25 -118 -77 -266 -219 -60 -57
-109 -109 -109 -115 0 -6 -16 -26 -35 -45 -19 -19 -35 -39 -35 -45 0 -6 -14
-24 -31 -41 -17 -16 -35 -38 -40 -49 -13 -29 -32 -58 -50 -75 -8 -8 -23 -31
-33 -50 -39 -76 -63 -119 -76 -136 -22 -26 -120 -226 -120 -244 0 -9 -9 -25
-20 -35 -11 -10 -20 -24 -20 -30 0 -7 -7 -26 -15 -41 -8 -16 -15 -37 -15 -47
0 -9 -4 -25 -9 -35 -41 -81 -51 -109 -57 -152 -4 -29 -14 -56 -25 -66 -11 -9
-19 -23 -19 -31 0 -7 -4 -13 -10 -13 -5 0 -10 -6 -10 -14 0 -7 -7 -19 -15 -26
-8 -7 -15 -22 -15 -33 0 -11 -7 -29 -17 -39 -19 -21 -40 -56 -49 -80 -3 -10
-10 -18 -15 -18 -5 0 -9 -11 -9 -23 0 -13 -9 -32 -20 -42 -12 -11 -28 -35 -37
-54 -10 -20 -19 -38 -22 -41 -9 -8 -29 -41 -47 -80 -10 -19 -24 -43 -32 -53
-19 -21 -40 -56 -48 -79 -3 -10 -10 -18 -15 -18 -5 0 -9 -6 -9 -13 0 -8 -9
-22 -20 -32 -11 -10 -20 -24 -20 -30 0 -7 -7 -18 -15 -25 -13 -11 -15 -7 -15
23 0 20 4 38 9 42 5 3 13 34 16 70 4 36 11 68 16 71 5 3 9 16 9 30 0 13 5 24
10 24 6 0 10 20 10 45 0 25 4 45 9 45 5 0 12 20 15 45 4 24 11 47 17 50 5 4 9
17 9 30 0 13 5 27 10 30 6 3 10 19 10 35 0 16 5 32 10 35 6 3 10 21 10 40 0
19 5 37 10 40 6 4 8 10 5 15 -3 5 4 25 15 45 11 19 20 44 20 55 0 11 5 20 10
20 6 0 10 20 10 44 0 25 4 47 9 50 5 3 12 23 15 43 9 46 28 93 38 93 5 0 8 20
8 45 0 25 4 45 8 45 5 0 17 28 27 63 10 34 27 77 37 95 10 18 18 45 18 61 0
16 7 42 15 57 8 16 15 47 15 69 0 34 -6 47 -38 78 -21 20 -47 37 -59 37 -11 0
-26 7 -33 15 -7 8 -21 15 -31 15 -10 0 -21 5 -24 10 -3 6 -15 10 -26 10 -20 0
-59 19 -70 34 -4 4 -10 3 -14 -3 -5 -9 -10 -9 -21 0 -7 6 -43 12 -78 12 -59 1
-68 -1 -96 -28 -31 -30 -42 -47 -75 -115 -44 -90 -65 -138 -65 -148 0 -7 -4
-12 -10 -12 -5 0 -10 -13 -10 -29 0 -16 -9 -46 -19 -68 -37 -75 -51 -111 -51
-136 0 -14 -4 -29 -10 -32 -5 -3 -10 -22 -10 -41 0 -19 -3 -34 -8 -34 -10 0
-29 -47 -38 -93 -3 -20 -10 -40 -15 -43 -5 -3 -9 -25 -9 -50 0 -24 -4 -44 -10
-44 -5 0 -10 -11 -10 -24 0 -14 -4 -27 -9 -30 -5 -3 -12 -26 -15 -51 -4 -24
-11 -47 -17 -50 -5 -4 -9 -23 -9 -44 0 -49 -23 -72 -48 -47 -14 14 -17 37 -17
135 0 113 3 128 36 193 5 10 9 27 9 37 0 11 5 23 10 26 6 3 10 19 10 35 0 16
4 31 9 34 4 3 11 24 15 46 3 22 11 40 16 40 6 0 10 11 10 24 0 14 5 28 10 31
6 3 10 19 10 34 0 15 5 32 10 37 6 6 13 41 17 77 4 52 3 71 -9 85 -8 9 -18 25
-21 35 -4 9 -14 18 -24 18 -17 1 -23 2 -48 8 -21 6 -121 2 -137 -4 -10 -4 -25
-4 -34 -1 -15 6 -34 -1 -140 -50 -28 -13 -55 -24 -59 -24 -4 0 -15 -8 -24 -18
-9 -10 -24 -21 -33 -25 -10 -3 -15 -12 -12 -20 2 -7 -4 -22 -16 -32 -11 -10
-20 -23 -20 -30 0 -7 -9 -20 -20 -30 -11 -10 -20 -28 -20 -41 0 -12 -10 -31
-22 -41 -13 -10 -28 -29 -35 -43 -6 -14 -24 -52 -39 -85 -16 -33 -31 -62 -34
-65 -8 -8 -29 -43 -39 -65 -5 -12 -16 -27 -25 -34 -9 -7 -16 -20 -16 -29 0
-21 -38 -98 -56 -112 -7 -7 -14 -23 -14 -35 0 -12 -7 -28 -15 -35 -8 -7 -15
-19 -15 -26 0 -8 -4 -14 -8 -14 -5 0 -14 -16 -22 -35 -8 -19 -17 -35 -22 -35
-4 0 -8 -9 -8 -20 0 -11 -4 -20 -10 -20 -5 0 -10 -8 -11 -17 0 -11 -3 -13 -6
-6 -2 7 3 27 11 44 9 18 16 42 16 55 0 13 5 26 10 29 6 3 10 24 10 45 0 21 5
42 10 45 6 3 10 21 10 40 0 19 4 36 9 39 26 16 -24 81 -68 91 -15 3 -33 15
-41 25 -8 11 -24 20 -37 20 -12 0 -24 4 -27 9 -3 4 -24 11 -47 15 -23 4 -47
10 -53 13 -6 4 -31 9 -56 11 -25 2 -50 8 -57 13 -7 7 -14 6 -18 -1 -3 -5 -19
-10 -35 -10 -16 0 -32 -5 -35 -11 -4 -5 -18 -14 -31 -19 -13 -5 -24 -16 -24
-25 0 -8 -7 -15 -15 -15 -8 0 -15 -6 -15 -13 0 -8 -8 -22 -19 -31 -10 -9 -21
-35 -25 -56 -3 -22 -15 -56 -26 -75 -11 -20 -20 -46 -20 -60 0 -13 -4 -26 -9
-29 -5 -3 -11 -20 -14 -38 -3 -18 -7 -44 -11 -58 -3 -14 -8 -37 -12 -52 -3
-16 -10 -28 -15 -28 -5 0 -9 -15 -9 -34 0 -19 -4 -38 -10 -41 -5 -3 -10 -24
-10 -45 0 -21 -4 -41 -9 -45 -6 -3 -13 -26 -17 -50 -3 -25 -10 -48 -15 -51 -5
-3 -9 -16 -9 -30 0 -13 -4 -24 -10 -24 -5 0 -10 -18 -10 -41 0 -25 -8 -52 -20
-69 -11 -16 -17 -35 -14 -44 6 -17 -16 -76 -28 -76 -5 0 -8 -25 -8 -55 l0 -55
-32 19 -33 18 -3 113 c-2 86 1 121 13 146 8 17 15 39 15 48 0 9 5 25 10 36 6
11 15 29 20 40 6 11 10 33 10 50 0 16 8 44 19 63 10 18 22 48 26 65 3 18 11
34 16 37 5 4 9 26 9 51 0 24 5 44 10 44 6 0 10 15 10 33 0 18 5 38 12 45 9 9
9 15 0 24 -7 7 -12 19 -12 28 0 9 -10 26 -23 38 -18 17 -36 22 -79 22 -36 0
-58 5 -61 13 -4 9 -7 9 -14 0 -5 -6 -34 -13 -66 -16 -32 -2 -63 -9 -70 -16 -6
-6 -19 -11 -29 -11 -18 0 -58 -18 -68 -31 -3 -4 -16 -10 -30 -14 -29 -8 -90
-63 -90 -80 0 -7 -9 -20 -20 -30 -11 -10 -20 -24 -20 -32 0 -7 -4 -13 -9 -13
-5 0 -12 -13 -16 -29 -3 -16 -15 -37 -26 -47 -10 -9 -19 -26 -19 -37 0 -11
-15 -38 -33 -61 -27 -33 -67 -102 -72 -126 -4 -14 -19 -46 -25 -50 -3 -3 -14
-21 -23 -40 -10 -19 -26 -48 -37 -65 -10 -16 -19 -37 -19 -46 -1 -9 -10 -24
-21 -34 -11 -10 -20 -24 -20 -30 0 -7 -7 -18 -15 -25 -8 -7 -15 -23 -15 -36 0
-13 -4 -24 -8 -24 -5 0 -15 -16 -22 -35 -18 -46 -40 -66 -40 -37 0 24 25 107
40 134 6 10 10 27 10 37 0 11 5 23 10 26 18 11 12 90 -8 108 -10 10 -23 17
-29 17 -6 0 -13 7 -17 15 -3 8 -15 15 -28 15 -12 0 -32 9 -44 21 -12 11 -38
22 -58 23 -19 2 -43 9 -52 16 -13 11 -17 11 -23 1 -6 -10 -12 -7 -24 10 -14
19 -19 20 -32 9 -10 -8 -15 -9 -15 -1 0 14 -77 15 -85 1 -5 -8 -11 -8 -19 -1
-10 8 -18 5 -31 -9 -10 -11 -23 -20 -30 -20 -12 0 -85 -71 -85 -83 0 -15 -35
-87 -42 -87 -5 0 -8 -18 -8 -40 0 -22 -4 -48 -9 -58 -12 -22 -25 -54 -26 -67
-5 -42 -18 -85 -25 -85 -6 0 -10 -20 -10 -45 0 -26 -8 -59 -21 -81 -11 -20
-23 -59 -26 -86 -3 -27 -10 -51 -14 -54 -5 -3 -9 -18 -9 -34 0 -16 -4 -32 -10
-35 -5 -3 -10 -22 -10 -41 0 -19 -4 -34 -10 -34 -5 0 -12 -17 -15 -37 -3 -21
-10 -46 -16 -55 -5 -10 -9 -31 -9 -47 0 -17 -4 -33 -10 -36 -5 -3 -10 -17 -10
-30 0 -14 -8 -39 -18 -57 -10 -18 -17 -38 -15 -45 2 -6 -1 -14 -6 -18 -6 -3
-11 -19 -11 -34 0 -30 -20 -81 -32 -81 -5 0 -8 -6 -8 -14 0 -7 -7 -19 -15 -26
-8 -7 -15 -22 -15 -35 0 -12 -9 -30 -20 -40 -11 -10 -20 -24 -20 -32 0 -7 -4
-13 -10 -13 -5 0 -10 -5 -10 -11 0 -16 -39 -97 -50 -104 -5 -3 -21 -30 -34
-60 -14 -29 -29 -56 -35 -59 -14 -9 -41 -66 -41 -86 0 -10 -7 -23 -15 -30 -8
-7 -15 -18 -15 -25 0 -7 -7 -15 -15 -18 -8 -3 -24 -25 -35 -49 -40 -81 -52
-99 -66 -105 -8 -3 -14 -15 -14 -27 0 -13 -11 -33 -25 -46 -14 -13 -25 -29
-25 -37 0 -7 -4 -13 -10 -13 -5 0 -10 18 -10 39 0 22 5 43 10 46 6 3 10 17 10
31 0 13 5 24 10 24 6 0 10 11 10 24 0 14 4 27 9 31 5 3 13 30 16 60 4 31 11
58 16 61 5 3 9 16 9 30 0 13 5 24 10 24 6 0 10 8 10 18 0 11 8 34 17 53 10 19
18 43 18 54 0 11 8 38 19 60 65 141 69 157 58 200 -5 17 -21 35 -41 46 -18 9
-41 25 -51 34 -14 13 -19 13 -23 3 -4 -9 -8 -10 -14 -3 -17 21 -63 45 -88 45
-14 0 -33 4 -43 9 -70 35 -138 45 -177 25 -15 -8 -35 -14 -44 -14 -10 0 -28
-11 -41 -25 -13 -14 -28 -25 -34 -25 -11 0 -66 -108 -66 -129 0 -6 -9 -26 -20
-46 -11 -20 -20 -49 -20 -65 0 -17 -4 -30 -9 -30 -5 0 -12 -15 -15 -32 -13
-71 -15 -76 -49 -148 -12 -25 -33 -59 -47 -76 -53 -66 -75 -97 -89 -131 -6
-11 -15 -24 -20 -28 -6 -3 -20 -25 -30 -48 -11 -23 -29 -49 -40 -57 -12 -8
-21 -24 -21 -35 0 -12 -15 -36 -33 -53 -19 -18 -40 -48 -47 -67 -8 -19 -20
-35 -27 -35 -7 0 -13 -5 -13 -11 0 -7 -8 -19 -18 -28 -10 -9 -27 -29 -38 -46
-10 -16 -33 -43 -51 -59 -18 -16 -33 -35 -33 -43 0 -7 -10 -17 -23 -22 -12 -5
-39 -27 -60 -50 -20 -23 -41 -41 -46 -41 -5 0 -14 -7 -21 -16 -8 -9 -25 -14
-44 -12 l-31 3 1 93 c1 54 7 99 13 105 6 6 11 28 11 48 0 21 5 41 10 44 6 3
10 16 10 29 0 12 5 27 10 32 6 6 13 35 17 64 3 30 19 78 35 108 15 30 28 62
28 71 0 10 3 21 8 25 4 4 7 11 8 14 6 50 33 112 55 129 9 7 19 30 23 51 3 22
19 64 35 93 17 30 38 70 47 89 10 19 21 37 24 40 3 3 14 22 23 42 10 20 22 40
27 43 6 3 10 16 10 29 0 13 18 40 45 66 25 24 45 49 45 55 0 6 11 19 25 29 14
10 25 24 25 30 0 15 102 116 118 116 7 0 12 7 12 15 0 8 7 15 15 15 8 0 20 9
27 20 7 11 21 20 30 20 10 0 18 5 18 10 0 6 11 10 24 10 14 0 28 5 31 10 4 6
10 8 15 5 5 -3 11 -1 15 5 10 16 158 12 181 -5 10 -8 28 -15 39 -15 10 0 34
-15 53 -32 31 -31 38 -33 102 -33 57 0 72 4 92 23 14 12 27 22 31 22 12 0 47
34 47 46 0 6 7 17 15 24 28 23 45 73 45 130 0 52 -3 59 -39 94 -39 38 -71 60
-103 72 -10 3 -18 10 -18 15 0 5 -9 9 -20 9 -11 0 -20 4 -20 9 0 11 -43 26
-113 37 -20 3 -40 10 -43 15 -8 14 -188 11 -202 -3 -9 -9 -15 -9 -23 -1 -7 7
-22 5 -51 -9 -22 -11 -49 -18 -61 -17 -25 2 -45 -4 -100 -32 -22 -10 -44 -19
-51 -19 -17 0 -93 -38 -101 -50 -3 -6 -25 -19 -48 -30 -55 -27 -78 -41 -98
-62 -9 -10 -20 -18 -25 -18 -5 0 -26 -16 -46 -35 -20 -19 -41 -35 -47 -35 -6
0 -11 -7 -11 -15 0 -9 -9 -15 -25 -15 -15 0 -28 -7 -32 -17 -9 -27 -45 -64
-70 -74 -13 -5 -23 -15 -23 -23 0 -7 -9 -16 -20 -19 -11 -3 -24 -16 -29 -29
-5 -12 -39 -52 -75 -88 -36 -35 -66 -68 -66 -73 0 -8 -8 -18 -89 -108 -28 -31
-51 -60 -51 -66 0 -5 -13 -22 -30 -38 -16 -15 -27 -31 -25 -35 3 -4 -4 -15
-15 -25 -11 -10 -20 -28 -20 -39 0 -12 -11 -30 -25 -40 -14 -10 -25 -24 -25
-31 0 -7 -7 -18 -15 -25 -9 -7 -24 -32 -35 -54 -10 -23 -28 -50 -39 -60 -12
-11 -21 -25 -21 -33 0 -7 -4 -13 -10 -13 -5 0 -10 -11 -10 -24 0 -13 -7 -29
-15 -36 -8 -7 -15 -18 -15 -25 0 -6 -9 -20 -20 -30 -11 -10 -20 -24 -20 -32 0
-7 -4 -13 -10 -13 -5 0 -10 -9 -10 -20 0 -25 -32 -100 -42 -100 -5 0 -8 -9 -8
-20 0 -11 -4 -20 -9 -20 -10 0 -25 -48 -22 -72 1 -9 -3 -19 -9 -23 -5 -3 -10
-15 -10 -26 0 -10 -3 -19 -7 -19 -10 0 -33 -49 -33 -69 0 -9 -7 -25 -15 -35
-8 -11 -15 -37 -15 -57 0 -21 -4 -41 -10 -44 -5 -3 -10 -19 -10 -36 0 -16 -5
-38 -10 -49 -6 -11 -15 -29 -20 -40 -6 -12 -13 -63 -17 -116 -3 -52 -10 -97
-15 -100 -11 -7 -10 -130 2 -152 5 -9 12 -43 15 -74 4 -32 11 -58 16 -58 5 0
9 -9 9 -19 0 -10 6 -21 14 -24 8 -3 20 -18 28 -34 8 -17 23 -29 38 -32 14 -1
28 -7 31 -13 3 -5 32 -12 65 -14 32 -3 65 -10 72 -17 9 -7 16 -7 20 0 4 5 38
13 76 16 38 4 74 11 80 17 5 5 20 10 33 10 13 0 23 3 23 8 0 8 48 32 66 32 17
0 74 33 74 43 0 4 8 7 18 7 27 0 72 23 72 38 0 6 11 12 24 12 15 0 26 7 29 20
3 11 13 20 24 20 10 0 29 12 42 25 13 14 29 25 35 25 7 0 25 13 41 30 15 16
32 27 37 24 5 -3 12 3 15 15 3 12 12 21 19 21 8 0 14 7 14 15 0 9 10 19 23 24
12 5 38 25 56 45 19 20 40 36 46 36 5 0 15 10 20 23 6 12 20 26 32 32 12 5 24
16 28 25 12 34 35 65 52 71 17 6 48 47 59 82 4 9 13 17 21 17 7 0 23 16 34 35
12 19 25 35 30 35 5 0 9 -42 9 -94 0 -53 4 -98 10 -101 5 -3 10 -27 10 -52 0
-34 7 -55 25 -79 14 -18 25 -42 25 -53 0 -12 6 -21 13 -21 8 0 22 -9 32 -20
12 -13 31 -20 55 -20 20 0 41 -5 48 -12 9 -9 12 -9 12 0 0 8 17 12 45 12 25 0
45 3 45 8 0 4 17 15 38 25 61 30 82 43 116 76 17 17 37 31 43 31 6 0 13 9 16
20 3 11 12 20 21 20 9 0 16 7 16 15 0 8 6 15 13 15 7 0 17 10 22 23 6 12 20
26 32 32 12 5 24 16 28 25 12 32 35 65 45 62 6 -1 14 8 19 20 5 13 18 32 30
42 11 11 21 23 21 28 0 10 45 73 70 98 18 18 36 47 49 75 5 12 16 27 25 34 9
7 16 19 16 26 0 7 7 18 15 25 13 11 15 6 15 -38 0 -28 5 -54 10 -57 6 -3 10
-19 10 -35 0 -16 5 -32 10 -35 6 -3 10 -16 10 -29 0 -13 9 -31 20 -41 10 -9
19 -20 18 -24 -2 -20 4 -31 17 -31 8 0 15 -4 15 -10 0 -15 67 -12 73 3 4 9 8
8 17 -3 9 -11 13 -12 17 -2 2 6 15 12 28 12 13 0 27 5 30 11 4 5 17 9 28 8 24
-3 112 34 122 52 4 5 31 21 61 35 30 13 54 31 54 39 0 9 9 15 23 15 31 1 147
113 147 143 0 12 -7 35 -15 51 -8 15 -15 37 -15 47 0 11 -4 19 -10 19 -6 0
-10 41 -10 104 0 59 4 108 10 111 6 3 10 21 10 39 0 18 3 36 7 39 7 8 10 23
18 102 6 46 14 74 36 117 5 10 9 26 9 36 0 10 5 23 10 28 6 6 13 35 17 65 3
30 15 69 25 87 10 18 18 41 18 51 0 10 7 24 15 31 8 7 15 23 15 36 0 25 14 55
41 89 14 17 20 32 34 85 8 33 21 58 36 71 11 9 19 26 19 37 0 11 4 23 9 27 5
3 12 18 16 34 3 16 15 37 26 47 10 9 19 23 19 31 0 7 4 13 9 13 5 0 12 8 15
18 9 24 30 59 49 80 10 10 17 28 17 40 0 11 11 29 25 40 14 11 25 24 25 29 0
6 9 18 20 28 11 10 20 24 20 32 0 7 7 13 15 13 8 0 15 6 15 13 0 8 9 22 20 32
11 10 20 23 20 29 0 7 27 38 60 71 33 33 60 64 60 70 0 11 122 135 133 135 4
0 7 -37 7 -83 0 -68 4 -92 24 -131 27 -54 54 -86 71 -86 6 0 22 -11 35 -25 17
-18 34 -25 61 -25 21 0 41 -5 45 -11 4 -8 9 -7 15 2 8 12 10 12 18 0 6 -9 10
-10 16 -2 5 9 10 9 21 0 10 -8 14 -8 14 0 0 6 5 11 10 11 6 0 10 -22 10 -49 0
-28 -4 -53 -10 -56 -5 -3 -10 -17 -10 -31 0 -13 -4 -24 -9 -24 -5 0 -12 -22
-16 -50 -4 -27 -11 -50 -16 -50 -5 0 -9 -20 -9 -44 0 -25 -4 -48 -10 -51 -5
-3 -10 -19 -10 -35 0 -16 -4 -31 -9 -35 -5 -3 -13 -30 -16 -60 -4 -31 -11 -58
-16 -61 -5 -3 -9 -38 -9 -79 0 -41 -4 -77 -10 -80 -5 -3 -10 -37 -10 -75 0
-46 -4 -70 -12 -73 -10 -3 -10 -9 0 -26 7 -12 12 -57 12 -111 0 -53 4 -90 10
-90 6 0 10 -15 10 -33 0 -19 3 -37 8 -41 4 -4 7 -13 7 -19 0 -7 12 -18 28 -25
15 -7 27 -20 27 -29 0 -12 3 -13 14 -4 11 9 16 9 21 0 6 -8 10 -7 16 2 6 11
13 11 26 3 14 -8 25 -7 51 7 18 11 43 19 56 19 12 0 26 3 30 8 4 4 11 7 14 8
17 2 48 19 62 34 8 8 35 24 60 35 25 10 54 27 66 37 11 10 25 18 31 18 7 0 20
11 31 25 11 14 26 25 34 25 7 0 20 10 28 21 8 12 26 35 39 51 23 28 23 29 5
66 -10 20 -19 51 -19 69 0 17 -4 35 -8 39 -9 9 -10 158 -1 167 4 3 7 34 7 67
0 34 4 63 9 66 4 3 8 16 8 29 0 13 5 27 10 30 6 3 10 19 10 35 0 16 5 32 10
35 6 3 10 19 10 35 0 16 4 31 9 34 4 3 11 27 14 54 3 27 15 66 26 86 12 20 21
45 21 56 0 11 5 20 10 20 6 0 10 15 10 33 0 31 5 44 48 120 12 21 22 43 22 50
0 7 16 44 35 81 19 38 35 77 35 86 0 10 7 20 15 24 8 3 15 16 15 29 0 14 7 30
15 37 9 7 25 33 36 57 11 23 24 43 29 43 6 0 10 9 10 20 0 11 3 20 8 20 4 0
15 17 25 38 23 49 36 69 75 117 45 54 47 57 55 78 3 9 13 17 22 17 8 0 15 6
15 13 0 8 11 24 25 37 14 13 25 29 25 37 0 7 7 13 15 13 9 0 20 10 24 23 5 12
46 58 90 102 l81 80 0 -52 c0 -29 5 -55 10 -58 6 -3 10 -17 10 -31 0 -13 3
-24 8 -24 9 0 32 -49 32 -70 0 -18 25 -43 53 -53 9 -4 17 -13 17 -22 0 -8 9
-15 20 -15 12 0 32 -7 45 -16 13 -9 29 -13 35 -9 5 3 16 3 23 -2 6 -4 32 -8
57 -9 44 0 45 -1 48 -34 3 -30 -2 -50 -29 -102 -5 -10 -9 -31 -9 -47 0 -16 -5
-31 -12 -33 -7 -3 -13 -32 -16 -74 -2 -38 -8 -73 -13 -78 -5 -6 -9 -25 -9 -43
0 -18 -4 -33 -10 -33 -5 0 -10 -11 -10 -24 0 -14 -4 -27 -9 -30 -12 -8 -21
-142 -21 -321 1 -166 6 -232 21 -241 5 -3 9 -14 9 -25 0 -11 14 -38 32 -60 23
-28 39 -39 59 -39 15 0 31 -4 34 -10 8 -13 62 -13 70 0 5 8 11 7 21 -1 10 -8
14 -8 14 0 0 6 11 11 24 11 14 0 27 4 31 9 3 5 18 12 34 16 16 3 37 15 47 26
9 10 23 19 31 19 7 0 13 7 13 15 0 8 5 15 11 15 6 0 28 18 49 40 21 22 43 40
49 40 6 0 11 5 11 10 0 6 32 42 70 81 39 38 70 74 70 78 0 4 9 16 20 26 11 10
20 23 20 30 0 6 15 26 33 43 19 18 40 48 47 67 8 19 20 35 27 35 7 0 13 5 13
11 0 7 8 19 18 28 10 9 25 32 35 52 9 19 25 43 37 54 11 10 20 28 20 39 1 12
12 35 25 51 l25 30 0 -42 c0 -23 5 -45 10 -48 6 -3 10 -19 10 -35 0 -16 5 -32
10 -35 6 -3 10 -21 10 -40 0 -27 11 -46 56 -94 31 -34 64 -61 74 -61 11 0 22
-4 25 -10 3 -5 39 -10 80 -10 41 0 77 5 80 10 3 6 26 10 49 10 24 0 57 7 72
15 16 8 36 15 45 15 9 0 22 7 29 15 16 19 68 45 92 45 10 0 29 11 42 25 13 14
30 25 38 25 9 0 22 7 29 16 7 9 22 20 34 25 34 16 64 35 83 52 10 10 23 17 28
17 5 0 23 16 39 35 17 19 36 35 43 35 6 0 12 7 12 15 0 8 6 15 13 15 15 0 147
129 147 144 0 6 10 16 22 21 13 6 28 20 34 32 6 13 20 31 32 42 12 10 22 24
22 30 0 6 11 17 25 23 14 6 25 16 25 23 0 6 8 20 18 31 10 10 25 35 34 55 10
19 26 43 38 54 11 10 20 24 20 32 0 7 4 13 9 13 5 0 12 8 15 18 11 29 32 62
60 91 14 15 26 35 26 44 0 9 9 34 21 56 16 32 28 42 55 47 19 3 37 10 40 15 3
5 16 9 30 9 13 0 24 5 24 10 0 6 10 10 22 10 12 0 30 8 40 17 10 9 27 17 38
18 10 1 28 10 40 20 11 10 20 13 20 7 0 -6 -5 -12 -11 -14 -9 -3 -12 -78 -13
-259 -1 -281 -1 -281 62 -348 30 -33 36 -36 102 -38 38 -1 72 2 75 8 4 5 27 9
53 9 82 0 122 10 122 31 0 15 7 19 34 19 19 0 38 5 41 10 3 6 15 10 25 10 10
0 25 7 34 15 8 8 23 15 34 15 10 0 27 9 37 20 10 11 28 20 40 20 32 0 75 50
75 88 0 18 -4 32 -10 32 -5 0 -10 9 -10 19 0 11 -4 22 -8 25 -19 12 -22 300
-2 320 5 5 10 23 10 38 0 16 5 37 10 48 6 11 15 29 20 40 6 11 10 32 10 47 0
16 7 37 15 47 8 11 15 30 15 42 0 13 5 26 10 29 6 3 10 19 10 35 0 16 5 32 10
35 6 3 10 14 10 24 0 23 99 221 111 221 5 0 9 8 9 18 0 27 61 143 91 172 8 8
23 31 33 50 29 57 42 79 59 98 10 10 17 22 17 27 0 4 11 18 25 31 14 13 25 27
25 32 0 14 223 232 237 232 7 0 13 6 13 14 0 8 15 25 33 37 17 13 39 31 47 40
9 9 34 27 57 38 22 12 49 31 58 41 10 11 22 20 27 20 4 0 8 -33 8 -74 0 -41 5
-78 10 -81 6 -3 10 -17 10 -29 0 -13 7 -29 15 -36 8 -7 15 -17 15 -22 0 -5 14
-22 30 -38 17 -16 30 -34 30 -40 0 -5 9 -10 21 -10 12 0 23 -8 25 -18 6 -21
59 -53 78 -46 7 3 19 -2 26 -11 7 -8 21 -15 31 -15 10 0 21 -5 24 -10 5 -8 11
-8 19 -1 7 6 16 8 20 4 13 -14 76 -30 82 -22 3 5 25 9 50 9 24 0 53 5 63 12
15 9 23 9 35 -1 9 -8 16 -19 16 -25 0 -6 27 -38 60 -71 33 -33 60 -64 60 -70
0 -14 42 -55 56 -55 5 0 36 -27 69 -60 33 -33 64 -60 70 -60 13 0 55 -42 55
-55 0 -5 -5 -4 -12 3 -7 7 -34 12 -60 12 -26 0 -48 5 -48 10 0 6 -29 10 -68
10 -40 0 -73 5 -80 12 -9 9 -15 9 -24 0 -15 -15 -95 -16 -100 -1 -2 7 -17 3
-41 -10 -21 -12 -51 -21 -67 -21 -17 0 -30 -3 -30 -7 0 -12 -51 -33 -62 -27
-17 11 -117 -98 -145 -156 -15 -30 -31 -58 -36 -61 -15 -10 -13 -252 1 -257 7
-2 12 -14 12 -26 0 -12 11 -33 25 -46 14 -13 25 -28 25 -35 0 -14 112 -125
126 -125 6 0 19 -9 29 -20 14 -16 20 -17 27 -8 5 8 11 9 16 3 13 -18 54 -37
91 -41 108 -12 487 1 497 17 3 5 18 9 34 9 16 0 32 5 35 10 3 6 23 10 44 10
20 0 42 5 48 11 6 6 41 14 77 16 46 4 70 11 82 24 10 11 30 19 46 19 15 0 36
4 46 9 9 5 35 17 57 26 22 9 48 20 57 25 10 6 27 10 38 10 11 0 20 3 20 8 0 8
42 27 84 37 16 3 41 19 56 35 15 16 39 32 53 35 14 4 33 15 43 26 9 10 21 19
25 19 12 0 70 41 109 77 104 95 148 133 156 133 5 0 41 32 79 70 38 39 74 70
80 70 14 0 75 62 75 76 0 5 20 30 45 54 25 24 45 49 45 55 0 6 43 53 95 105
52 52 95 99 95 104 0 5 16 22 35 39 19 16 35 35 35 42 0 6 9 20 20 30 11 10
20 23 20 30 0 6 11 22 25 35 14 13 25 29 25 35 0 7 9 20 20 30 15 13 20 31 20
67 0 69 -40 132 -91 143 -16 4 -31 11 -34 16 -4 5 -30 9 -60 9 -59 0 -137 -34
-162 -70 -8 -11 -21 -20 -29 -20 -8 0 -14 -5 -14 -11 0 -5 -13 -24 -30 -42
-16 -18 -30 -35 -30 -38 0 -3 -31 -37 -70 -75 -38 -38 -70 -74 -70 -79 0 -6
-31 -42 -70 -80 -38 -38 -70 -74 -70 -80 0 -12 -148 -161 -153 -154 -10 14
-27 58 -32 84 -3 17 -19 41 -35 54 -17 13 -30 29 -30 35 0 15 -72 86 -86 86
-6 0 -19 9 -29 20 -10 11 -22 20 -26 20 -4 0 -47 40 -95 90 -49 49 -90 87 -93
84 -6 -6 -71 57 -71 69 0 6 -34 43 -75 84 -41 41 -75 79 -75 83 0 5 -6 15 -13
22 -7 7 -25 38 -40 69 -32 66 -39 177 -12 199 8 7 15 17 15 22 0 12 26 38 38
38 4 0 19 11 32 25 20 21 33 25 81 25 32 0 61 -4 64 -10 3 -5 23 -17 43 -26
81 -37 82 -40 82 -204 0 -168 8 -197 68 -227 40 -21 148 -28 211 -15 37 8 69
49 70 89 1 12 5 23 9 25 8 3 62 110 62 122 0 5 14 21 30 36 17 15 30 32 30 37
0 5 20 29 45 53 24 24 42 46 40 50 -2 4 25 35 60 70 36 36 65 70 65 76 0 6 7
17 15 24 8 7 15 24 15 39 0 15 5 32 12 39 9 9 9 15 0 24 -7 7 -12 19 -12 28 0
27 -88 107 -150 136 -8 4 -17 10 -20 13 -11 13 -51 31 -68 31 -10 0 -23 5 -28
10 -6 6 -73 13 -150 16 -108 5 -142 3 -151 -7z m-3725 -1216 c6 -15 12 -37 12
-49 0 -13 5 -26 10 -29 6 -3 10 -19 10 -35 0 -16 -4 -32 -10 -35 -5 -3 -10
-35 -10 -70 0 -35 -4 -67 -10 -70 -5 -3 -10 -26 -10 -51 0 -24 -4 -44 -9 -44
-4 0 -11 -34 -13 -76 -3 -41 -10 -80 -17 -87 -6 -6 -11 -21 -11 -33 0 -13 -4
-26 -10 -29 -5 -3 -10 -17 -10 -31 0 -13 -4 -24 -10 -24 -5 0 -10 5 -10 10 0
6 -11 10 -25 10 -14 0 -25 -4 -25 -10 0 -5 -6 -10 -14 -10 -7 0 -20 -7 -27
-16 -7 -9 -22 -20 -34 -25 -45 -21 -69 -39 -117 -85 -106 -105 -106 -173 2
-279 48 -47 61 -77 40 -90 -5 -3 -10 -16 -10 -28 0 -12 -11 -31 -25 -41 -14
-10 -25 -24 -25 -31 0 -7 -7 -18 -15 -25 -9 -7 -24 -32 -35 -54 -10 -23 -28
-50 -39 -60 -12 -11 -21 -23 -21 -28 0 -13 -51 -63 -72 -71 -10 -3 -18 -13
-18 -21 0 -18 -49 -46 -79 -46 -11 0 -23 -4 -26 -10 -9 -14 -66 -13 -97 2 -47
23 -61 77 -56 226 3 82 9 137 16 144 7 7 12 29 12 49 0 21 5 41 10 44 6 3 10
21 10 39 0 19 7 47 15 62 8 16 15 36 15 44 0 8 9 30 20 48 11 18 20 41 20 52
0 10 5 22 10 25 6 3 10 17 10 31 0 13 5 24 10 24 6 0 10 11 10 24 0 14 4 28
10 31 9 6 25 37 57 115 25 60 37 84 52 99 7 8 27 44 44 80 29 61 51 94 113
164 13 15 24 31 24 35 0 5 11 19 25 32 14 13 25 29 25 37 0 7 6 13 13 13 7 0
37 25 67 55 30 30 60 55 66 55 6 0 14 9 17 20 3 12 14 20 26 20 12 0 21 6 21
15 0 11 11 15 43 15 36 0 44 -4 55 -27z m2756 -762 c3 -4 44 -11 92 -14 47 -2
91 -10 97 -16 6 -6 23 -11 38 -11 15 0 31 -5 34 -11 8 -12 -33 -59 -52 -59 -7
0 -13 -4 -13 -10 0 -5 -20 -10 -45 -10 -25 0 -45 -4 -45 -10 0 -5 -22 -10 -49
-10 -28 0 -53 5 -56 10 -3 6 -22 10 -41 10 -22 0 -34 5 -34 14 0 7 -7 19 -15
26 -8 7 -15 28 -15 46 0 31 3 34 29 34 17 0 33 5 36 10 8 12 32 13 39 1z"/>
<path d="M13330 10519 c-47 -12 -70 -21 -70 -30 0 -5 -9 -9 -20 -9 -11 0 -34
-8 -52 -18 -18 -10 -38 -17 -45 -15 -6 2 -14 -1 -18 -6 -3 -6 -15 -11 -26 -11
-21 0 -53 -16 -84 -42 -11 -9 -32 -21 -47 -27 -16 -6 -28 -16 -28 -23 0 -7
-10 -18 -22 -23 -13 -6 -25 -21 -27 -35 -1 -14 -6 -27 -10 -30 -35 -27 -41
-121 -11 -175 17 -30 20 -54 20 -150 0 -70 4 -116 11 -120 6 -4 9 -21 8 -39
-2 -17 0 -37 4 -43 9 -14 65 -43 82 -43 22 0 75 31 69 41 -3 5 3 12 13 15 24
9 133 115 133 130 0 6 9 14 20 17 11 3 24 16 29 29 5 12 39 52 75 88 36 35 66
69 66 75 0 6 9 17 20 25 11 8 20 24 20 37 0 12 4 24 9 28 18 10 41 68 41 101
0 18 5 36 10 39 6 3 10 28 10 56 0 27 -4 49 -10 49 -5 0 -10 16 -10 35 0 19
-3 35 -8 35 -4 0 -12 10 -17 23 -8 18 -18 22 -60 22 -27 0 -61 -2 -75 -6z"/>
<path d="M6280 8540 c0 -5 -10 -10 -23 -10 -13 0 -27 -3 -31 -7 -4 -5 -13 -8
-19 -8 -7 0 -16 -19 -21 -42 -6 -24 -13 -43 -18 -43 -4 0 -8 -11 -8 -24 0 -14
-4 -28 -10 -31 -5 -3 -10 -19 -10 -35 0 -16 -4 -32 -10 -35 -5 -3 -10 -21 -10
-39 0 -18 -7 -41 -15 -52 -8 -10 -15 -29 -15 -41 0 -12 -4 -25 -10 -28 -5 -3
-10 -17 -10 -31 0 -13 -4 -24 -10 -24 -5 0 -10 -15 -10 -34 0 -19 -4 -37 -9
-40 -5 -3 -12 -23 -15 -43 -6 -33 -26 -84 -57 -145 -4 -9 -11 -39 -15 -67 -4
-28 -11 -54 -15 -57 -5 -3 -9 -13 -9 -23 0 -21 -22 -71 -32 -71 -5 0 -8 -11
-8 -24 0 -14 -4 -27 -9 -31 -5 -3 -13 -30 -16 -60 -4 -31 -11 -58 -16 -61 -5
-3 -9 -16 -9 -30 0 -13 -3 -24 -8 -24 -9 0 -28 -45 -37 -89 -4 -19 -16 -50
-26 -68 -11 -19 -19 -44 -19 -58 0 -13 -4 -27 -10 -30 -5 -3 -10 -15 -10 -26
0 -24 -32 -99 -42 -99 -5 0 -8 -11 -8 -24 0 -14 -4 -28 -10 -31 -5 -3 -10 -17
-10 -31 0 -13 -4 -24 -9 -24 -4 0 -11 -21 -14 -47 -3 -26 -10 -49 -16 -51 -6
-2 -11 -12 -11 -21 0 -10 -11 -40 -25 -67 -14 -27 -25 -64 -25 -82 0 -28 -14
-66 -30 -82 -13 -13 -30 -52 -30 -69 0 -11 -4 -22 -9 -26 -5 -3 -12 -19 -16
-35 -4 -17 -11 -30 -16 -30 -5 0 -9 -16 -9 -35 0 -19 -4 -35 -10 -35 -5 0 -10
-9 -10 -20 0 -11 -4 -28 -10 -38 -5 -9 -17 -35 -26 -57 -9 -22 -27 -63 -40
-91 -13 -28 -24 -60 -24 -72 0 -11 -16 -51 -36 -88 -20 -37 -37 -76 -39 -86
-4 -19 -26 -71 -56 -131 -10 -22 -19 -47 -19 -57 0 -10 -7 -23 -15 -30 -8 -7
-15 -19 -15 -26 0 -8 -4 -14 -10 -14 -5 0 -10 -11 -10 -24 0 -14 -4 -27 -9
-30 -5 -3 -12 -21 -15 -40 -4 -18 -15 -41 -26 -51 -11 -10 -20 -26 -20 -35 0
-20 -29 -80 -38 -80 -12 0 -32 -52 -32 -82 0 -15 -4 -28 -10 -28 -5 0 -10 -9
-10 -20 0 -11 -4 -20 -9 -20 -6 0 -24 -28 -41 -62 -17 -35 -35 -70 -39 -78 -5
-8 -21 -41 -36 -72 -14 -32 -30 -60 -35 -63 -4 -3 -31 -52 -60 -110 -28 -58
-61 -115 -73 -128 -19 -18 -33 -41 -42 -67 -11 -33 -27 -59 -49 -79 -14 -14
-26 -29 -26 -35 0 -6 -16 -25 -35 -41 -19 -17 -35 -39 -35 -51 0 -22 -33 -57
-62 -67 -10 -4 -18 -12 -18 -20 0 -7 -14 -26 -30 -42 -38 -36 -51 -26 -58 45
-2 28 -9 53 -13 56 -11 7 -12 101 -1 108 5 3 12 65 16 138 3 73 11 137 16 142
6 6 10 43 10 82 0 40 5 76 10 79 6 3 10 22 10 41 0 19 5 34 10 34 6 0 10 20
10 44 0 25 4 47 9 50 5 4 8 17 6 31 -1 14 2 28 6 31 5 3 9 18 9 34 0 16 5 32
10 35 6 3 10 19 10 36 0 16 4 37 9 47 23 46 30 73 35 147 3 43 11 84 16 89 6
6 10 20 10 33 0 13 5 23 10 23 6 0 10 11 10 24 0 14 4 27 9 30 7 5 20 60 25
108 1 3 4 10 9 14 4 4 7 18 7 31 0 12 5 23 10 23 6 0 10 11 10 24 0 14 5 28
10 31 6 3 10 24 10 45 0 21 5 42 10 45 6 4 8 11 5 16 -6 9 9 68 26 101 5 10 9
27 9 38 0 11 5 20 10 20 6 0 10 11 10 24 0 14 5 28 10 31 6 3 10 18 10 33 0
15 7 40 15 56 8 15 15 43 15 62 0 18 5 36 10 39 6 3 10 17 10 30 0 13 5 27 10
30 6 3 10 18 10 33 0 15 7 40 15 56 8 15 15 37 15 47 0 11 5 19 10 19 6 0 10
11 10 24 0 14 4 27 9 30 9 6 18 49 24 112 2 16 11 45 20 64 9 18 17 41 17 52
0 10 5 18 10 18 6 0 10 13 10 29 0 16 7 42 15 57 8 16 15 37 15 46 0 9 5 20
10 23 6 3 10 22 10 41 0 19 5 34 10 34 6 0 10 18 10 40 0 22 4 48 9 58 13 24
41 117 41 136 0 9 5 16 10 16 6 0 10 11 10 24 0 14 5 28 10 31 6 3 10 17 10
31 0 13 5 24 10 24 6 0 10 31 10 74 0 41 -4 78 -10 81 -5 3 -10 14 -10 24 0
10 -9 26 -20 36 -11 10 -20 23 -20 29 0 21 -114 123 -161 144 -25 11 -51 27
-58 36 -8 9 -24 16 -36 16 -12 0 -28 7 -35 15 -7 8 -25 15 -41 15 -15 0 -31 5
-34 10 -3 6 -22 10 -41 10 -19 0 -34 5 -34 10 0 15 -183 13 -198 -2 -7 -7 -12
-22 -12 -35 0 -13 -4 -23 -10 -23 -5 0 -10 -11 -10 -24 0 -14 -4 -28 -10 -31
-5 -3 -10 -24 -10 -45 0 -21 -4 -41 -9 -44 -4 -3 -11 -28 -15 -55 -4 -28 -16
-70 -28 -93 -31 -64 -36 -79 -43 -130 -3 -26 -10 -50 -16 -53 -5 -4 -9 -17 -9
-30 0 -13 -4 -27 -10 -30 -5 -3 -10 -28 -10 -56 0 -27 -4 -49 -10 -49 -5 0
-10 -11 -10 -24 0 -14 -4 -27 -9 -30 -4 -3 -11 -27 -15 -53 -7 -51 -26 -103
-38 -103 -5 0 -8 -11 -8 -24 0 -14 -4 -27 -9 -31 -5 -3 -13 -30 -16 -60 -4
-31 -11 -58 -16 -61 -5 -3 -9 -16 -9 -30 0 -13 -4 -24 -10 -24 -5 0 -10 -20
-10 -45 0 -25 -4 -45 -9 -45 -5 0 -12 -22 -16 -50 -4 -27 -11 -52 -16 -56 -5
-3 -9 -18 -9 -34 0 -16 -4 -32 -10 -35 -5 -3 -10 -17 -10 -31 0 -13 -4 -24
-10 -24 -5 0 -10 -8 -10 -19 0 -10 -7 -32 -15 -47 -8 -16 -15 -41 -15 -56 0
-15 -4 -30 -10 -33 -5 -3 -10 -26 -10 -51 0 -24 -4 -44 -10 -44 -5 0 -10 -11
-10 -24 0 -14 -4 -28 -10 -31 -5 -3 -10 -16 -10 -29 0 -12 -7 -31 -15 -42 -8
-10 -15 -29 -15 -41 0 -12 -4 -25 -10 -28 -5 -3 -10 -17 -10 -30 0 -14 -9 -41
-20 -61 -12 -20 -19 -39 -16 -41 2 -3 -4 -20 -15 -39 -10 -19 -19 -43 -19 -54
0 -10 -4 -22 -10 -25 -5 -3 -10 -24 -10 -45 0 -21 -4 -42 -10 -45 -5 -3 -10
-14 -10 -23 0 -9 -7 -30 -15 -46 -8 -15 -15 -37 -15 -47 0 -11 -3 -19 -8 -19
-9 0 -28 -45 -37 -89 -4 -19 -16 -50 -26 -68 -11 -19 -19 -40 -19 -48 0 -9 -5
-24 -10 -35 -5 -11 -14 -29 -20 -40 -5 -10 -7 -26 -4 -34 3 -8 1 -17 -5 -21
-6 -3 -11 -17 -11 -31 0 -13 -3 -24 -7 -24 -9 0 -33 -48 -33 -65 0 -6 -16 -42
-35 -79 -19 -38 -35 -77 -35 -87 0 -11 -4 -19 -9 -19 -7 0 -19 -25 -25 -52 0
-3 -4 -10 -8 -14 -5 -4 -8 -16 -8 -26 0 -10 -4 -26 -9 -36 -24 -45 -61 -130
-61 -140 0 -6 -4 -12 -8 -14 -4 -1 -21 -29 -37 -61 -17 -32 -34 -67 -40 -78
-5 -10 -13 -19 -17 -19 -5 0 -8 -9 -8 -20 0 -11 -4 -20 -9 -20 -8 0 -21 -34
-26 -65 -3 -20 -19 -50 -34 -65 -26 -24 -66 -82 -83 -120 -9 -19 -30 -48 -47
-64 -17 -17 -31 -35 -31 -42 0 -16 -129 -154 -144 -154 -7 0 -19 -11 -26 -25
-7 -14 -19 -25 -27 -25 -7 0 -13 -3 -13 -7 0 -11 -50 -33 -71 -33 -10 0 -21
-4 -24 -10 -3 -5 -35 -10 -71 -10 -36 0 -64 4 -64 10 0 6 -11 10 -24 10 -14 0
-28 5 -31 10 -3 6 -16 10 -29 10 -12 0 -33 11 -45 24 -32 34 -101 176 -101
208 0 15 -4 30 -10 33 -13 8 -13 312 0 320 5 3 10 28 10 55 0 27 4 51 9 54 5
4 8 17 6 31 -1 14 2 28 6 31 5 3 9 18 9 34 0 16 4 32 10 35 6 3 10 21 10 40 0
19 5 37 10 40 6 3 10 28 10 55 0 27 4 51 9 55 6 3 13 26 17 50 3 25 10 45 15
45 5 0 9 11 9 24 0 14 5 28 10 31 6 3 10 22 10 41 0 19 5 34 10 34 6 0 10 9
10 20 0 22 26 106 40 132 6 10 10 27 10 38 0 11 5 20 10 20 6 0 10 11 10 23 0
13 3 27 8 31 4 4 7 11 8 14 8 54 18 92 25 92 5 0 9 16 9 35 0 19 5 35 10 35 6
0 10 11 10 24 0 14 4 27 9 30 5 3 12 26 15 51 4 24 11 47 17 50 5 4 9 17 9 30
0 13 5 27 10 30 5 3 10 22 10 41 0 19 4 42 9 52 13 24 41 117 41 136 0 9 5 16
10 16 6 0 10 11 10 24 0 14 5 28 10 31 6 3 10 17 10 30 0 13 4 26 9 29 5 3 12
31 16 61 3 30 11 55 16 55 5 0 9 11 9 24 0 14 5 28 10 31 6 3 10 17 10 31 0
13 4 24 9 24 5 0 12 23 16 50 4 28 11 50 16 50 5 0 9 11 9 24 0 14 5 28 10 31
6 3 10 22 10 41 0 19 4 34 9 34 5 0 12 35 16 78 6 71 13 98 36 144 5 10 9 27
9 38 0 11 5 20 10 20 6 0 10 11 10 24 0 14 4 27 9 30 5 3 12 35 16 71 3 36 11
67 16 70 5 4 9 19 9 35 0 16 5 32 10 35 6 3 10 24 10 45 0 21 4 41 9 44 12 8
24 176 16 220 -4 21 -20 48 -36 64 -16 15 -29 32 -29 38 0 16 -62 71 -90 79
-14 4 -32 15 -40 24 -8 10 -32 25 -53 34 -32 16 -59 17 -203 13 -151 -5 -167
-7 -184 -25 -12 -15 -29 -21 -59 -21 -22 0 -41 -4 -41 -10 0 -5 -15 -10 -34
-10 -18 0 -39 -7 -46 -15 -7 -8 -25 -15 -41 -15 -15 0 -31 -4 -34 -10 -3 -5
-15 -10 -26 -10 -10 0 -27 -4 -37 -9 -9 -5 -34 -17 -54 -25 -20 -9 -40 -21
-43 -26 -3 -6 -17 -10 -31 -10 -13 0 -24 -3 -24 -8 0 -4 -15 -13 -32 -21 -18
-7 -46 -20 -62 -27 -16 -8 -37 -14 -48 -14 -10 0 -18 -3 -18 -8 0 -4 -15 -13
-33 -21 -17 -8 -43 -24 -57 -36 -14 -12 -40 -28 -57 -36 -18 -8 -33 -17 -33
-21 0 -4 -20 -17 -44 -28 -25 -11 -48 -25 -51 -31 -4 -5 -17 -15 -28 -20 -41
-19 -66 -35 -93 -62 -15 -15 -30 -27 -35 -27 -11 0 -205 -196 -238 -240 -14
-19 -28 -37 -32 -40 -3 -3 -9 -12 -12 -20 -4 -8 -16 -28 -26 -45 -11 -16 -20
-40 -20 -52 -1 -13 -5 -23 -11 -23 -5 0 -10 -15 -10 -33 0 -18 -5 -38 -11 -44
-11 -11 -7 -174 6 -228 10 -44 55 -135 66 -135 5 0 9 -6 9 -12 0 -14 96 -118
108 -118 4 0 19 -10 33 -22 34 -31 65 -48 86 -48 10 0 27 -7 37 -15 11 -8 34
-15 52 -15 18 0 36 -4 39 -10 8 -13 242 -13 250 -1 3 5 19 12 35 16 72 16 210
115 210 151 0 6 9 19 20 29 11 10 22 33 26 51 3 19 10 37 15 40 5 3 9 14 9 25
0 10 5 28 10 39 6 11 15 29 20 40 6 11 10 71 10 134 0 94 -3 116 -17 127 -13
11 -17 11 -20 2 -3 -7 -11 -13 -19 -13 -8 0 -14 -4 -14 -10 0 -31 -122 -110
-170 -110 -17 0 -30 -4 -30 -10 0 -5 -20 -10 -44 -10 -25 0 -48 -5 -51 -10
-11 -17 -115 2 -115 21 0 5 -6 9 -13 9 -21 0 -57 44 -57 68 0 12 -5 22 -12 22
-9 0 -9 3 0 12 7 7 12 19 12 28 0 22 29 80 40 80 5 0 10 7 12 15 4 21 169 185
185 185 7 0 13 4 13 9 0 5 8 12 17 15 25 9 59 30 80 48 10 9 29 19 43 23 14 4
32 16 41 26 9 11 21 19 26 19 6 0 18 9 28 20 22 25 71 50 97 50 10 0 18 5 18
10 0 6 9 10 19 10 11 0 22 4 25 9 3 5 21 12 40 15 18 4 41 15 51 26 10 11 26
20 36 20 10 0 20 4 24 9 3 5 30 13 60 16 33 5 60 14 71 26 10 11 30 19 51 19
31 0 33 -2 33 -35 0 -19 -4 -35 -10 -35 -5 0 -10 -11 -10 -24 0 -14 -4 -28
-10 -31 -5 -3 -10 -16 -10 -29 0 -12 -4 -26 -10 -32 -5 -5 -13 -32 -16 -59 -4
-28 -10 -52 -13 -55 -13 -11 -31 -51 -31 -69 0 -11 -4 -22 -9 -26 -6 -3 -13
-26 -17 -50 -3 -25 -10 -48 -15 -51 -5 -3 -9 -20 -9 -38 0 -34 -20 -86 -32
-86 -5 0 -8 -11 -8 -24 0 -14 -4 -27 -9 -31 -6 -3 -8 -14 -6 -25 2 -11 0 -22
-6 -25 -5 -4 -9 -17 -9 -31 0 -13 -4 -24 -10 -24 -5 0 -10 -9 -10 -20 0 -11
-4 -28 -9 -38 -21 -40 -41 -91 -41 -106 0 -16 -4 -26 -28 -73 -7 -13 -12 -29
-12 -37 0 -7 -7 -27 -15 -42 -8 -16 -15 -37 -15 -46 0 -9 -4 -20 -10 -23 -5
-3 -10 -17 -10 -31 0 -13 -4 -24 -10 -24 -5 0 -10 -11 -10 -24 0 -14 -4 -28
-10 -31 -5 -3 -10 -17 -10 -30 0 -13 -5 -27 -11 -30 -6 -4 -8 -13 -5 -21 3 -7
1 -16 -4 -19 -6 -4 -10 -17 -10 -30 0 -13 -4 -27 -10 -30 -5 -3 -10 -17 -10
-31 0 -13 -4 -24 -10 -24 -5 0 -10 -11 -10 -24 0 -14 -4 -27 -9 -31 -6 -3 -13
-26 -17 -50 -3 -25 -10 -48 -15 -51 -5 -3 -9 -25 -9 -50 0 -24 -5 -54 -12 -67
-24 -47 -27 -57 -34 -106 -4 -28 -11 -54 -15 -57 -5 -3 -9 -16 -9 -29 0 -13
-5 -27 -10 -30 -6 -3 -10 -17 -10 -31 0 -13 -4 -24 -10 -24 -5 0 -10 -10 -10
-23 0 -13 -3 -27 -7 -31 -4 -4 -8 -13 -9 -19 -2 -35 -18 -98 -25 -103 -5 -3
-9 -18 -9 -34 0 -16 -4 -32 -10 -35 -5 -3 -10 -22 -10 -41 0 -19 -4 -34 -9
-34 -5 0 -12 -34 -16 -75 -4 -41 -11 -78 -16 -81 -5 -3 -9 -27 -9 -55 0 -27
-4 -49 -10 -49 -14 0 -14 -367 0 -375 6 -3 10 -35 10 -70 0 -35 4 -66 9 -69 5
-3 12 -26 15 -51 4 -24 11 -47 17 -50 5 -4 9 -17 9 -30 0 -13 5 -27 10 -30 6
-3 10 -17 10 -31 0 -13 5 -24 10 -24 6 0 10 -5 10 -12 0 -11 50 -119 60 -128
8 -8 29 -43 39 -65 5 -12 16 -27 25 -34 9 -7 16 -19 16 -25 0 -14 182 -196
196 -196 6 0 21 -11 34 -25 13 -14 34 -25 47 -25 13 0 23 -3 23 -8 0 -4 19
-15 43 -25 23 -10 54 -24 70 -30 15 -7 27 -15 27 -19 0 -5 19 -8 43 -8 24 0
49 -6 55 -12 9 -9 48 -12 134 -10 112 2 178 15 178 34 0 5 10 8 23 9 12 0 36
9 52 20 17 10 37 22 45 26 8 3 17 9 20 13 3 3 22 14 44 24 21 10 41 27 43 37
3 10 11 19 18 19 6 0 20 9 30 20 10 11 20 18 23 15 7 -7 42 26 42 39 0 6 38
49 85 96 47 47 85 89 85 94 0 5 16 27 36 50 49 57 54 64 54 74 0 4 14 21 31
38 17 16 39 47 49 70 11 22 26 46 34 53 9 8 13 17 10 22 -3 5 0 9 5 9 6 0 11
6 11 14 0 7 7 19 15 26 9 7 26 33 38 58 37 74 41 82 49 82 5 0 8 9 8 19 0 10
7 21 15 25 8 3 15 14 15 25 0 20 40 104 53 109 4 2 7 9 7 17 0 7 7 18 15 25 8
7 15 21 15 31 0 19 19 59 32 69 18 14 58 104 58 130 0 15 4 30 8 32 9 3 62
113 62 128 0 6 5 10 10 10 6 0 10 8 10 18 0 10 11 42 25 70 14 29 25 58 25 66
0 8 5 18 10 21 6 3 10 15 10 26 0 10 4 27 9 37 5 9 16 33 25 52 l16 35 -6 -50
c-4 -27 -11 -54 -15 -60 -5 -5 -9 -21 -9 -36 0 -15 -4 -31 -10 -34 -6 -3 -10
-28 -10 -55 0 -27 -4 -51 -9 -54 -10 -7 -21 -67 -21 -113 0 -17 -4 -34 -10
-38 -5 -3 -10 -26 -10 -51 0 -24 -4 -44 -10 -44 -5 0 -10 -20 -10 -44 0 -25
-5 -48 -10 -51 -5 -3 -10 -25 -10 -49 0 -23 -6 -48 -12 -54 -18 -18 -18 -556
0 -573 6 -7 12 -27 12 -45 0 -18 4 -34 8 -36 4 -1 20 -28 35 -58 33 -65 45
-85 72 -117 22 -27 69 -53 97 -53 10 0 18 -4 18 -10 0 -6 37 -10 90 -10 53 0
90 4 90 10 0 6 15 10 34 10 19 0 37 4 40 9 3 4 29 11 57 15 45 6 85 21 99 37
4 4 74 40 90 45 3 1 15 5 28 9 12 4 22 11 22 16 0 5 9 9 20 9 11 0 20 7 20 16
0 8 16 22 35 30 19 8 35 20 35 27 0 7 16 19 35 27 19 8 35 20 35 27 0 7 6 13
13 13 16 0 57 41 57 57 0 6 9 13 20 16 11 3 24 15 28 27 4 11 19 27 32 33 14
7 31 25 38 40 8 16 25 32 38 37 13 5 28 20 33 32 5 13 21 34 35 47 14 14 26
30 26 36 0 6 16 26 35 45 19 19 35 39 35 45 0 5 11 19 25 29 14 10 25 24 25
31 0 6 9 20 21 31 11 10 29 37 40 61 10 23 23 45 29 48 5 3 16 20 25 38 8 18
25 43 38 57 12 14 30 41 39 61 10 19 26 43 38 54 11 10 20 28 20 39 0 12 9 27
20 34 12 7 18 17 15 22 -3 5 -1 11 5 15 5 3 10 16 10 29 0 12 11 33 26 47 14
13 50 74 80 136 31 62 60 113 65 113 5 0 9 8 9 18 0 23 76 176 96 193 8 6 14
23 14 37 0 24 46 131 61 142 4 3 11 18 14 33 4 15 11 30 16 33 5 3 9 19 9 36
0 17 8 38 18 47 19 16 34 45 37 71 5 31 18 60 26 60 5 0 9 9 9 20 0 11 9 35
20 55 11 20 20 41 20 48 0 7 11 34 25 61 14 27 25 58 25 68 0 10 5 18 10 18 6
0 10 10 10 23 0 12 7 35 15 51 8 15 15 37 15 47 0 11 3 19 8 19 9 0 32 49 32
70 0 9 3 20 8 24 4 4 7 17 8 29 0 21 8 42 60 153 13 28 24 67 24 87 0 20 5 39
10 42 6 3 10 17 10 31 0 13 3 24 8 24 10 0 29 47 38 93 3 20 10 40 15 43 5 3
9 21 9 40 0 19 5 34 10 34 6 0 10 9 10 20 0 11 9 35 20 55 11 19 23 53 26 75
4 22 11 43 15 46 5 3 9 18 9 34 0 16 5 32 10 35 6 3 10 17 10 30 0 13 4 26 9
30 6 3 13 26 17 50 3 25 10 48 15 51 5 3 9 16 9 30 0 13 5 24 10 24 6 0 10 20
10 45 0 25 5 45 10 45 6 0 10 11 10 24 0 14 5 28 10 31 6 4 10 12 9 18 -3 19
13 77 22 83 5 3 9 16 9 29 0 13 5 27 10 30 6 3 10 24 10 45 0 21 4 41 9 45 6
3 13 26 17 50 3 25 10 48 15 51 5 3 9 18 9 34 0 16 5 32 10 35 6 3 10 17 10
30 0 13 5 27 10 30 6 3 10 31 10 61 0 30 -4 54 -10 54 -5 0 -10 10 -11 23 0
12 -9 36 -20 52 -10 17 -22 37 -25 45 -11 24 -46 60 -59 60 -7 0 -20 9 -30 20
-10 11 -24 20 -30 20 -7 0 -18 7 -25 15 -7 8 -23 15 -36 15 -13 0 -24 3 -24 8
0 10 -50 32 -71 32 -10 0 -21 5 -24 11 -4 6 -13 8 -21 5 -7 -3 -16 -1 -19 4
-4 6 -28 10 -55 10 -27 0 -52 4 -55 10 -4 6 -14 5 -27 -3 -16 -9 -22 -9 -25 1
-6 14 -23 16 -23 2z"/>
</g>
</svg>
